<?xml version="1.0" standalone="no"?>
<!DOCTYPE svg PUBLIC "-//W3C//DTD SVG 20010904//EN"
 "http://www.w3.org/TR/2001/REC-SVG-20010904/DTD/svg10.dtd">
<svg version="1.0" xmlns="http://www.w3.org/2000/svg"
 width="300.000000pt" height="300.000000pt" viewBox="0 0 300.000000 300.000000"
 preserveAspectRatio="xMidYMid meet">
<metadata>
Created by potrace 1.11, written by Peter Selinger 2001-2013
</metadata>
<g transform="translate(0.000000,300.000000) scale(0.100000,-0.100000)"
fill="#000000" stroke="none">
<path d="M275 2099 c-4 -6 -13 -8 -21 -5 -10 4 -11 0 -2 -19 6 -13 16 -21 21
-18 8 5 7 8 -1 11 -7 2 -10 8 -7 12 3 5 12 7 20 4 8 -4 12 -10 9 -15 -3 -5 0
-9 5 -9 6 0 11 5 11 11 0 5 4 8 9 5 5 -3 14 1 21 9 9 10 9 15 1 15 -6 0 -11
-4 -11 -9 0 -5 -8 -8 -17 -6 -10 2 -22 4 -26 4 -5 1 -5 6 -2 11 3 6 4 10 1 10
-3 0 -8 -5 -11 -11z"/>
<path d="M1035 2102 c-11 -2 -27 -6 -35 -9 -8 -3 -18 -5 -22 -5 -5 1 -8 -7 -8
-17 0 -11 -5 -23 -10 -26 -6 -4 -8 -11 -4 -16 3 -5 8 -21 10 -36 4 -23 3 -25
-11 -13 -9 7 -15 8 -15 2 0 -6 6 -13 13 -16 10 -5 10 -7 0 -12 -18 -8 -16 -21
1 -21 8 0 15 3 14 6 -2 19 3 31 13 31 6 0 8 -9 4 -22 -4 -13 -3 -18 2 -11 9
12 63 6 63 -7 0 -5 3 -16 7 -26 5 -12 3 -15 -6 -9 -10 6 -11 3 -2 -13 8 -14 8
-23 1 -27 -8 -5 -8 -11 -1 -19 7 -9 7 -16 0 -23 -8 -8 -8 -17 0 -31 13 -25 14
-35 2 -27 -6 3 -6 -7 0 -27 11 -41 11 -41 -1 -33 -5 3 -8 0 -5 -7 11 -31 13
-68 4 -74 -6 -4 -6 -11 1 -19 8 -10 8 -15 0 -20 -6 -4 -8 -15 -5 -26 3 -10 8
-29 11 -40 4 -15 3 -19 -6 -14 -9 6 -9 3 -1 -13 14 -26 14 -35 0 -26 -8 4 -8
0 0 -15 9 -15 8 -25 -1 -41 -13 -20 -33 -26 -41 -12 -2 4 -2 1 -1 -5 2 -7 -3
-13 -11 -13 -17 0 -22 -8 -29 -43 -2 -15 -7 -31 -11 -36 -3 -6 6 -24 21 -40
l27 -30 111 4 c129 5 136 6 136 17 0 4 9 8 20 8 10 0 24 8 29 18 6 9 11 13 11
9 0 -4 20 6 44 22 51 36 147 142 159 177 5 13 13 24 18 24 5 0 9 8 9 18 0 9 7
26 15 36 8 11 15 28 15 38 0 10 5 18 11 18 5 0 8 4 5 9 -7 11 14 74 26 82 6 3
10 10 10 15 -1 23 33 75 77 120 54 56 65 64 103 81 23 10 30 10 44 -4 11 -11
13 -18 5 -21 -7 -2 -8 -9 -1 -22 7 -13 7 -21 -2 -26 -7 -5 -8 -3 -3 6 6 9 4
11 -4 6 -9 -6 -9 -12 3 -25 9 -10 13 -20 10 -23 -3 -4 -6 -43 -6 -87 0 -44 -4
-78 -9 -76 -4 3 -2 -7 6 -22 9 -16 11 -31 5 -37 -5 -5 -5 -18 0 -32 6 -15 5
-26 -2 -30 -7 -5 -8 -3 -3 6 5 9 4 11 -4 6 -9 -6 -9 -11 1 -23 15 -18 12 -61
-5 -82 -9 -12 -9 -13 1 -7 8 5 12 1 12 -13 0 -19 -7 -21 -47 -7 -23 7 -39 39
-28 56 3 5 1 10 -5 10 -6 0 -8 5 -4 12 8 13 6 359 -2 367 -3 3 -9 -1 -14 -9
-6 -8 -10 -12 -10 -7 0 4 -8 -1 -18 -10 -11 -10 -17 -21 -15 -24 1 -4 -4 -10
-13 -13 -9 -3 -12 -11 -8 -18 5 -8 2 -9 -11 -4 -16 6 -16 4 -4 -11 8 -9 9 -14
3 -10 -7 4 -15 0 -18 -9 -3 -8 -2 -12 4 -9 6 3 10 1 10 -4 0 -6 -5 -11 -10
-11 -7 0 -7 -6 -1 -18 6 -11 6 -24 -1 -36 -7 -12 -7 -17 0 -12 5 3 12 -1 15
-9 4 -10 1 -12 -10 -8 -11 4 -14 2 -9 -5 13 -21 15 -52 4 -52 -7 0 -4 -6 7
-13 14 -11 15 -16 5 -22 -8 -5 -11 -4 -7 2 4 6 -3 13 -14 16 -12 3 -18 10 -15
15 3 5 -6 12 -19 15 -14 2 -23 2 -20 -1 2 -3 -1 -12 -8 -20 -10 -13 -9 -14 1
-8 11 7 11 4 0 -13 -7 -12 -16 -21 -20 -21 -4 0 -5 -6 -2 -14 3 -8 0 -17 -5
-21 -6 -3 -9 -11 -6 -16 3 -5 0 -6 -8 -3 -27 10 -14 -56 15 -81 15 -13 25 -25
23 -27 -5 -4 96 -78 110 -80 6 -1 16 -8 23 -15 7 -7 22 -13 33 -13 10 0 19 -4
19 -9 0 -6 8 -10 18 -11 9 0 59 -3 111 -6 57 -4 91 -2 88 3 -4 6 7 9 23 8 17
-1 30 2 30 7 0 4 8 8 18 8 23 0 119 65 162 111 55 58 79 87 74 92 -2 2 2 10
11 17 8 7 15 21 15 32 0 10 4 17 8 14 5 -3 19 28 33 67 13 40 26 74 29 77 3 3
7 14 8 25 5 27 64 122 99 160 30 33 82 68 126 84 l27 11 0 -276 c0 -181 -3
-273 -10 -269 -5 3 -10 0 -10 -7 0 -9 -3 -10 -8 -2 -4 6 -17 14 -29 18 -13 4
-23 15 -24 24 -6 97 -5 121 4 115 6 -4 7 -1 2 6 -13 22 -15 82 -3 75 7 -5 8
-2 3 5 -13 22 -15 82 -3 75 7 -5 8 -2 3 5 -12 21 -15 82 -4 75 8 -4 8 0 1 12
-5 11 -8 27 -7 37 2 9 1 17 -2 17 -8 0 -81 -80 -74 -80 3 0 0 -4 -8 -9 -10 -6
-14 -37 -15 -120 -1 -84 -4 -111 -14 -111 -7 0 -11 4 -8 9 3 5 -1 14 -9 21 -8
7 -13 16 -10 19 2 4 -2 8 -10 8 -14 0 -19 -10 -16 -29 0 -5 -4 -8 -9 -8 -5 0
-9 -3 -8 -7 2 -5 -10 -33 -26 -65 l-29 -56 53 -56 c29 -31 60 -56 67 -56 8 0
12 -4 9 -8 -6 -9 76 -52 99 -52 8 0 15 -4 15 -8 0 -10 1 -10 113 -18 48 -3 98
-3 112 0 27 7 58 56 53 84 -6 33 -57 85 -72 73 -7 -5 -15 -4 -21 3 -12 13 -16
46 -6 46 7 0 4 87 -4 108 -2 6 -1 12 3 12 8 0 6 86 -3 108 -2 6 -1 12 4 12 5
0 5 18 1 40 -4 22 -4 40 -1 40 7 0 4 87 -4 108 -2 6 -1 12 3 12 5 0 6 15 4 34
-4 30 -1 35 25 40 42 10 61 29 68 66 4 23 1 38 -11 51 -9 11 -13 19 -8 20 5 0
-2 5 -16 11 -14 6 -56 11 -95 11 -134 0 -226 -42 -332 -149 -40 -40 -73 -80
-73 -88 0 -8 -3 -16 -7 -18 -14 -6 -42 -64 -76 -160 -50 -139 -115 -228 -201
-274 -26 -14 -53 -23 -59 -21 -9 3 -12 76 -12 275 0 150 2 272 5 272 3 0 16
-7 28 -16 12 -8 22 -12 22 -8 0 3 6 1 14 -5 10 -9 13 -56 13 -221 0 -115 3
-213 6 -217 4 -3 7 -1 7 6 0 7 3 10 8 7 4 -2 24 18 45 46 l37 51 0 103 c0 97
10 131 25 84 3 -11 11 -20 16 -20 6 0 7 -5 3 -11 -4 -7 -1 -10 7 -7 8 3 14 9
14 14 0 5 17 41 37 81 l36 72 -48 50 c-54 57 -145 121 -172 121 -10 0 -18 5
-18 12 0 6 -3 9 -6 5 -3 -3 -22 0 -42 7 -55 18 -169 12 -236 -14 -13 -5 -27
-6 -32 -2 -4 4 -4 1 0 -5 7 -12 3 -14 -31 -17 -6 -1 -21 -14 -33 -29 -12 -15
-26 -25 -30 -22 -5 3 -14 -4 -20 -15 -6 -11 -14 -19 -18 -16 -4 2 -13 -2 -20
-10 -7 -8 -9 -14 -5 -14 4 0 1 -6 -7 -13 -8 -7 -21 -24 -29 -39 -8 -15 -18
-25 -23 -22 -7 5 -11 -9 -5 -22 1 -3 -6 -10 -15 -15 -9 -5 -15 -18 -13 -29 2
-11 -1 -23 -7 -26 -7 -5 -8 -2 -3 6 5 9 4 11 -3 6 -7 -4 -12 -16 -12 -27 0
-13 -4 -18 -12 -13 -10 5 -10 4 -2 -5 14 -15 7 -48 -11 -55 -8 -3 -11 -13 -8
-27 4 -14 2 -20 -4 -16 -7 5 -9 -1 -5 -15 3 -14 2 -19 -6 -14 -7 4 -13 1 -13
-8 -3 -32 -4 -36 -20 -54 -8 -10 -13 -24 -11 -32 4 -12 2 -13 -9 -3 -12 10
-15 8 -16 -10 -2 -22 -54 -77 -72 -77 -6 0 -11 -5 -11 -11 0 -5 -4 -8 -9 -5
-5 4 -11 2 -13 -3 -1 -5 -10 -11 -18 -13 -8 -2 -21 -10 -28 -18 -8 -8 -11 -9
-7 -2 3 6 1 12 -5 12 -7 0 -10 7 -6 15 3 8 0 15 -7 15 -9 0 -9 2 0 8 8 5 9 13
3 22 -5 8 -5 21 1 31 6 12 5 19 -4 22 -9 4 -9 6 1 6 10 1 10 6 1 22 -8 15 -8
19 0 15 6 -4 11 -2 11 3 0 6 -5 11 -10 11 -7 0 -7 6 0 20 7 13 7 20 1 20 -7 0
-7 9 -1 25 7 18 6 25 -3 25 -9 0 -9 2 0 8 8 5 9 13 3 22 -5 8 -4 22 2 33 7 14
7 17 -1 13 -8 -5 -8 0 -1 18 7 18 6 26 -1 26 -8 0 -7 5 1 15 9 11 9 15 1 15
-9 0 -9 5 -1 20 8 14 8 20 0 20 -7 0 -8 6 -1 18 6 11 6 24 0 35 -14 24 9 31
47 15 24 -10 30 -19 30 -43 -1 -16 -5 -33 -11 -37 -6 -5 -6 -8 2 -8 7 0 11
-22 11 -65 0 -41 -4 -62 -11 -58 -6 4 -7 1 -1 -8 12 -20 12 -99 -1 -99 -5 0
-5 -4 2 -8 8 -5 11 -27 9 -60 -2 -29 0 -55 5 -57 9 -6 73 55 90 86 8 15 14 62
14 121 1 100 9 131 21 84 3 -14 10 -23 15 -20 5 3 9 0 9 -5 0 -6 5 -11 11 -11
5 0 7 5 4 10 -3 6 -1 10 4 10 6 0 11 7 11 15 0 14 44 101 61 119 5 6 -19 37
-59 75 -71 69 -91 85 -132 101 -14 6 -33 15 -42 20 -10 6 -26 10 -36 10 -10 0
-22 3 -25 6 -7 8 -121 12 -152 6z"/>
<path d="M212 2084 c10 -10 20 -15 24 -12 3 4 -5 12 -18 18 -22 12 -22 12 -6
-6z"/>
<path d="M362 2095 c12 -12 -52 -55 -70 -47 -9 3 1 -11 22 -31 21 -20 41 -37
45 -37 5 0 22 14 39 30 18 17 37 30 44 30 7 -1 3 -9 -9 -19 -12 -10 -19 -21
-16 -25 4 -3 2 -6 -3 -6 -6 0 -20 -9 -32 -20 l-21 -20 -41 38 c-22 22 -42 37
-45 34 -3 -3 -5 1 -5 8 0 7 -3 10 -7 6 -4 -4 11 -22 32 -41 34 -28 37 -35 22
-40 -9 -4 -17 -12 -17 -17 0 -6 6 -6 14 1 8 7 16 8 18 4 3 -4 3 -2 2 5 -4 13
8 16 19 5 12 -11 57 -12 57 -1 0 6 9 3 20 -7 11 -10 20 -23 20 -29 0 -6 -5 -5
-12 2 -7 7 -17 12 -23 12 -5 0 -2 -5 8 -11 9 -6 15 -14 12 -20 -4 -5 -2 -9 3
-9 13 0 23 27 16 45 -4 8 -10 15 -16 15 -5 0 0 14 12 31 12 16 25 28 28 25 2
-3 -1 -13 -8 -21 -10 -12 -10 -21 -1 -41 8 -18 8 -31 0 -46 -8 -15 -8 -19 0
-14 6 4 11 0 11 -9 0 -9 -4 -13 -10 -10 -5 3 -10 3 -10 -2 0 -4 16 -18 36 -31
20 -13 33 -19 30 -14 -3 6 1 12 9 16 21 8 42 -33 24 -45 -10 -6 -10 -9 -2 -9
22 0 24 20 6 50 -9 16 -21 30 -26 30 -4 0 -6 -4 -3 -9 8 -12 -18 -21 -34 -11
-7 4 -14 22 -15 40 l-3 31 22 -20 c35 -32 39 -25 6 9 -17 17 -30 36 -30 43 0
15 56 -44 93 -99 17 -26 25 -48 22 -60 -6 -18 -6 -18 5 -1 6 9 9 21 5 26 -3 5
1 12 7 14 8 3 6 6 -4 6 -10 1 -29 19 -42 40 -14 22 -37 51 -52 66 l-26 26 23
19 c29 26 47 26 25 1 -17 -19 -17 -21 1 -45 10 -14 25 -25 33 -25 12 0 11 2
-2 10 -10 5 -18 15 -18 21 0 7 5 6 15 -2 10 -9 15 -9 15 -1 0 6 -5 11 -11 11
-5 0 -7 6 -3 13 5 8 2 7 -9 -2 -22 -18 -34 -7 -14 13 8 8 17 12 21 9 3 -4 6
-2 6 4 0 5 -12 15 -26 21 -14 7 -24 9 -22 5 2 -5 -9 -20 -24 -35 -35 -33 -37
-13 -3 26 30 35 33 46 4 20 -20 -18 -20 -18 -15 11 6 27 6 28 -4 6 -11 -25
-60 -87 -60 -76 0 4 -7 2 -15 -5 -28 -23 -15 3 14 29 16 15 31 33 33 41 2 8 8
19 13 23 10 9 -2 6 -42 -10 -17 -6 -17 -5 0 14 14 16 15 23 6 29 -7 4 -10 3
-5 -4 3 -5 2 -12 -3 -14 -5 -1 -11 -10 -13 -18 -2 -8 -13 -26 -25 -40 l-23
-25 -25 28 c-14 15 -22 27 -17 27 5 0 19 9 32 20 29 25 49 26 27 2 -10 -10
-14 -22 -10 -27 5 -4 0 -5 -9 -2 -12 4 -15 2 -11 -9 9 -25 26 -17 22 12 0 4 3
10 8 13 4 3 15 15 23 26 8 11 11 17 6 13 -5 -4 -18 -2 -30 4 -11 6 -18 7 -14
3z"/>
<path d="M180 2080 c8 -5 10 -10 4 -10 -7 0 -15 -8 -18 -17 -6 -15 -4 -15 13
1 20 18 21 18 30 -5 6 -15 10 -18 10 -8 1 17 -29 49 -45 49 -5 0 -2 -5 6 -10z"/>
<path d="M940 2071 c0 -6 4 -13 10 -16 6 -3 7 1 4 9 -7 18 -14 21 -14 7z"/>
<path d="M233 2040 c-1 -11 2 -20 5 -20 4 0 8 9 9 20 1 11 -2 20 -5 20 -4 0
-8 -9 -9 -20z"/>
<path d="M185 2040 c-3 -5 -1 -10 4 -10 6 0 11 5 11 10 0 6 -2 10 -4 10 -3 0
-8 -4 -11 -10z"/>
<path d="M885 2040 c-3 -5 -2 -10 4 -10 5 0 13 5 16 10 3 6 2 10 -4 10 -5 0
-13 -4 -16 -10z"/>
<path d="M912 2029 c-19 -30 -11 -32 11 -3 10 13 14 24 10 24 -5 0 -14 -9 -21
-21z"/>
<path d="M159 2021 c8 -5 10 -14 6 -22 -5 -8 -4 -11 0 -6 5 4 19 0 32 -8 13
-9 23 -11 23 -6 0 5 -9 12 -19 16 -11 3 -22 12 -25 20 -3 8 -11 15 -18 15 -10
0 -10 -2 1 -9z"/>
<path d="M860 2020 c0 -6 7 -10 15 -10 8 0 15 2 15 4 0 2 -7 6 -15 10 -8 3
-15 1 -15 -4z"/>
<path d="M932 2018 c-7 -7 -12 -18 -12 -26 0 -7 -4 -10 -10 -7 -5 3 -10 2 -10
-4 0 -5 6 -12 13 -15 10 -5 10 -7 0 -12 -7 -3 -13 -11 -13 -16 0 -6 3 -8 7 -4
4 3 13 -4 21 -16 10 -18 12 -19 7 -3 -4 11 -7 29 -7 40 -1 48 2 57 16 52 10
-4 13 -1 9 9 -6 17 -6 17 -21 2z"/>
<path d="M210 2008 c14 -6 31 -12 38 -14 7 -1 20 -8 28 -15 14 -11 13 -15 -8
-32 -15 -12 -17 -17 -6 -13 9 2 19 0 21 -7 2 -7 3 -4 1 6 -1 10 4 21 11 24 10
3 6 12 -15 30 -16 13 -34 22 -39 19 -5 -4 -12 -2 -16 4 -3 5 -14 10 -23 9 -12
0 -9 -4 8 -11z"/>
<path d="M820 2006 c0 -2 7 -6 15 -10 8 -3 15 -1 15 4 0 6 -7 10 -15 10 -8 0
-15 -2 -15 -4z"/>
<path d="M870 1990 c-8 -5 -12 -11 -9 -14 2 -3 11 -1 19 4 8 5 12 11 9 14 -2
3 -11 1 -19 -4z"/>
<path d="M814 1975 c-4 -8 -10 -15 -16 -15 -5 0 -6 5 -2 12 4 7 3 8 -5 4 -6
-4 -9 -11 -6 -16 8 -13 58 -7 61 8 1 7 0 8 -3 2 -8 -16 -23 -12 -17 5 4 8 3
15 0 15 -4 0 -9 -7 -12 -15z"/>
<path d="M227 1967 c-3 -8 1 -14 9 -14 7 0 10 5 7 10 -4 6 1 8 11 4 10 -4 15
-3 11 3 -9 14 -32 12 -38 -3z"/>
<path d="M589 1974 c5 -3 7 -18 4 -35 -2 -16 0 -29 6 -29 6 0 8 7 5 15 -5 11
-1 14 12 9 17 -5 17 -4 -1 11 -11 9 -19 19 -17 23 2 3 -1 7 -7 8 -7 2 -7 0 -2
-2z"/>
<path d="M875 1960 c-3 -5 -4 -14 -1 -19 3 -5 -3 -20 -14 -33 -11 -14 -17 -28
-14 -31 3 -2 -9 -15 -25 -27 -17 -12 -31 -17 -31 -11 0 5 10 17 22 25 15 11
18 16 8 16 -12 0 -12 2 -2 8 8 6 2 9 -18 9 -17 0 -26 -4 -19 -8 8 -4 4 -9 -10
-14 -11 -3 -21 -11 -21 -16 0 -6 10 -3 22 5 33 23 47 19 18 -6 -22 -18 -19
-34 6 -28 3 1 14 -9 25 -21 10 -12 19 -18 19 -14 0 5 -7 17 -17 27 -18 20 -5
25 17 6 11 -10 11 -9 0 6 -13 18 -13 19 1 14 11 -4 15 0 14 15 -1 12 6 30 15
40 10 10 18 29 18 43 0 26 -3 29 -13 14z"/>
<path d="M771 1941 c10 -21 9 -23 -5 -18 -9 4 -16 3 -16 -2 0 -5 24 -8 53 -8
28 0 44 2 34 5 -9 2 -15 8 -12 13 4 5 2 9 -4 9 -5 0 -11 -6 -14 -12 -3 -9 -12
-4 -26 12 l-22 25 12 -24z"/>
<path d="M845 1940 c-3 -5 -1 -10 4 -10 6 0 11 5 11 10 0 6 -2 10 -4 10 -3 0
-8 -4 -11 -10z"/>
<path d="M255 1910 c-3 -5 -1 -10 4 -10 6 0 11 5 11 10 0 6 -2 10 -4 10 -3 0
-8 -4 -11 -10z"/>
<path d="M313 1914 c9 -3 15 -9 13 -13 -3 -4 0 -13 5 -21 7 -11 8 -8 6 10 -3
16 -11 26 -23 27 -16 2 -16 1 -1 -3z"/>
<path d="M620 1905 c-7 -9 -22 -13 -34 -10 -12 3 -15 2 -8 -1 6 -3 10 -9 7
-14 -6 -10 22 -40 37 -40 6 0 0 9 -13 20 -13 10 -19 19 -13 20 5 0 14 -4 20
-9 5 -6 16 -4 28 5 11 8 15 14 9 14 -7 0 -15 -5 -18 -10 -4 -6 -11 -8 -16 -5
-5 4 -3 12 4 19 6 8 16 11 21 8 5 -3 6 0 2 6 -9 15 -11 15 -26 -3z"/>
<path d="M890 1898 c-12 -22 -12 -22 6 -6 10 10 15 20 12 24 -4 3 -12 -5 -18
-18z"/>
<path d="M727 1904 c-3 -3 -3 -13 0 -22 5 -11 2 -14 -9 -10 -10 4 -14 0 -13
-15 2 -22 -15 -48 -27 -41 -3 2 -5 -4 -3 -13 2 -10 4 -22 4 -28 1 -5 5 -3 10
5 6 8 8 17 5 21 -2 4 4 13 13 20 15 12 16 12 10 -4 -4 -11 -3 -16 3 -12 17 10
11 -5 -10 -27 -15 -17 -17 -24 -8 -30 18 -11 25 -10 43 8 9 9 19 13 23 9 4 -4
-4 -16 -17 -27 -21 -16 -22 -21 -10 -29 18 -11 20 -11 39 1 8 5 11 12 7 17 -5
4 -12 1 -17 -7 -5 -8 -12 -11 -16 -7 -12 12 18 38 38 31 15 -4 13 0 -7 20
l-26 26 -19 -22 c-10 -13 -21 -20 -25 -16 -4 4 0 14 9 23 20 20 20 25 0 53
-27 39 1 23 44 -25 23 -25 45 -43 49 -40 3 4 1 7 -5 7 -7 0 -12 5 -12 11 0 5
5 7 12 3 7 -5 8 -3 4 5 -5 7 -10 10 -13 7 -3 -3 -21 10 -40 27 -23 23 -32 38
-27 50 3 9 11 14 18 10 6 -4 5 1 -3 10 -15 19 -15 19 -24 11z"/>
<path d="M290 1889 c0 -5 5 -7 10 -4 6 3 10 8 10 11 0 2 -4 4 -10 4 -5 0 -10
-5 -10 -11z"/>
<path d="M266 1874 c-3 -9 -4 -20 -1 -24 7 -11 35 -1 35 12 0 6 -7 4 -16 -3
-15 -12 -16 -11 -10 9 8 25 1 30 -8 6z"/>
<path d="M905 1880 c-3 -6 1 -7 9 -4 18 7 21 14 7 14 -6 0 -13 -4 -16 -10z"/>
<path d="M314 1839 c0 -24 6 -44 14 -47 6 -2 12 1 12 8 0 6 -4 8 -10 5 -5 -3
-10 -2 -10 4 0 5 6 12 13 14 10 4 10 6 0 6 -7 1 -13 6 -13 12 0 5 6 7 13 3 7
-5 7 -1 -3 12 -8 10 -15 20 -16 22 -1 2 -1 -16 0 -39z"/>
<path d="M435 1870 c-3 -5 -1 -10 4 -10 6 0 11 5 11 10 0 6 -2 10 -4 10 -3 0
-8 -4 -11 -10z"/>
<path d="M500 1860 c0 -5 5 -10 11 -10 5 0 7 5 4 10 -3 6 -8 10 -11 10 -2 0
-4 -4 -4 -10z"/>
<path d="M870 1859 c0 -5 5 -7 10 -4 6 3 10 8 10 11 0 2 -4 4 -10 4 -5 0 -10
-5 -10 -11z"/>
<path d="M439 1847 c0 -1 -2 -10 -4 -20 -3 -15 -1 -16 13 -5 9 7 18 13 20 14
2 1 -4 4 -13 7 -8 4 -15 5 -16 4z"/>
<path d="M254 1825 c3 -20 26 -44 26 -27 0 7 -5 12 -11 12 -5 0 -8 4 -4 9 3 5
1 12 -4 15 -5 4 -8 -1 -7 -9z"/>
<path d="M285 1820 c3 -5 8 -10 11 -10 2 0 4 5 4 10 0 6 -5 10 -11 10 -5 0 -7
-4 -4 -10z"/>
<path d="M934 1815 c8 -7 12 -16 8 -20 -4 -5 -2 -5 5 -1 16 9 6 33 -14 33 -14
0 -14 -1 1 -12z"/>
<path d="M452 1801 c-12 -10 -19 -21 -16 -24 4 -3 15 4 25 16 l19 22 19 -22
c10 -12 21 -19 25 -16 6 6 -32 43 -44 43 -4 0 -17 -8 -28 -19z"/>
<path d="M905 1791 c4 -13 -2 -25 -21 -40 -15 -12 -22 -21 -17 -21 5 0 19 9
32 21 12 12 25 18 29 14 4 -4 -3 -15 -15 -25 -12 -9 -19 -20 -16 -24 4 -3 -3
-6 -15 -6 -12 0 -22 -4 -22 -9 0 -17 39 1 55 25 9 14 20 22 26 19 5 -4 4 5 -3
19 -6 14 -15 26 -20 26 -5 0 -6 5 -3 10 3 6 1 10 -5 10 -7 0 -9 -8 -5 -19z"/>
<path d="M290 1790 c0 -5 5 -10 11 -10 5 0 7 5 4 10 -3 6 -8 10 -11 10 -2 0
-4 -4 -4 -10z"/>
<path d="M250 1780 c0 -5 6 -10 13 -10 8 0 7 -4 -3 -11 -13 -9 -12 -10 3 -5 9
3 17 3 17 -1 0 -3 -8 -12 -17 -20 -16 -13 -16 -13 5 -3 27 13 28 31 2 48 -12
7 -20 8 -20 2z"/>
<path d="M462 1770 c-7 -12 -18 -18 -24 -14 -7 4 -8 3 -4 -4 9 -15 11 -15 31
5 9 9 20 12 23 7 4 -5 16 -16 27 -24 15 -12 14 -8 -5 17 -30 38 -32 39 -48 13z"/>
<path d="M644 1779 c-5 -8 -3 -9 6 -4 9 6 12 4 9 -6 -3 -8 18 -36 48 -65 29
-28 53 -48 53 -43 0 4 -20 27 -45 51 -25 24 -45 48 -45 55 0 17 -17 25 -26 12z"/>
<path d="M300 1761 c0 -5 9 -7 20 -4 11 3 20 7 20 9 0 2 -9 4 -20 4 -11 0 -20
-4 -20 -9z"/>
<path d="M570 1760 c0 -5 5 -10 11 -10 5 0 7 5 4 10 -3 6 -8 10 -11 10 -2 0
-4 -4 -4 -10z"/>
<path d="M320 1742 c-25 -11 -55 -36 -65 -52 -8 -13 -7 -13 10 0 17 14 18 13
12 -2 -3 -10 -2 -18 4 -18 6 0 9 8 7 18 -4 24 10 42 33 42 10 0 19 5 19 10 0
11 1 11 -20 2z"/>
<path d="M460 1731 c-8 -6 -18 -7 -24 -4 -5 3 -6 1 -2 -5 5 -9 13 -9 28 -1 17
9 23 8 30 -5 5 -9 14 -16 21 -16 7 0 6 4 -3 10 -8 5 -10 10 -5 10 6 0 3 5 -5
10 -18 12 -21 12 -40 1z"/>
<path d="M638 1733 c6 -2 12 -9 12 -14 0 -6 -4 -8 -8 -5 -4 2 -9 -5 -9 -16 -2
-20 -1 -20 12 -2 13 18 16 17 56 -23 23 -24 45 -43 50 -43 5 0 -16 25 -47 55
-31 30 -62 55 -68 54 -7 0 -6 -3 2 -6z"/>
<path d="M922 1710 c-18 -29 -15 -33 8 -10 21 21 25 30 12 30 -4 0 -13 -9 -20
-20z"/>
<path d="M300 1701 c0 -5 9 -7 20 -4 11 3 20 7 20 9 0 2 -9 4 -20 4 -11 0 -20
-4 -20 -9z"/>
<path d="M460 1700 c0 -6 5 -8 10 -5 6 3 10 1 10 -4 0 -6 -5 -11 -11 -11 -6 0
-3 -7 5 -16 9 -8 16 -19 16 -24 0 -4 8 -11 17 -14 15 -6 15 -5 -1 13 -10 11
-19 30 -20 42 -1 23 -26 40 -26 19z"/>
<path d="M433 1685 c0 -8 4 -15 9 -15 4 0 8 7 8 15 0 8 -4 15 -8 15 -5 0 -9
-7 -9 -15z"/>
<path d="M933 1680 c-3 -11 -9 -17 -14 -15 -4 3 -13 -3 -18 -14 -14 -25 -14
-31 -1 -31 6 0 9 3 9 8 -3 19 2 32 12 30 6 -2 15 7 20 20 4 12 6 22 3 22 -3 0
-8 -9 -11 -20z"/>
<path d="M315 1680 c-19 -8 -19 -9 3 -9 12 -1 22 4 22 9 0 6 -1 10 -2 9 -2 0
-12 -4 -23 -9z"/>
<path d="M500 1685 c0 -5 4 -16 9 -23 6 -11 10 -10 15 4 3 9 4 19 1 22 -3 3
-5 -1 -5 -9 0 -11 -2 -11 -10 1 -5 8 -10 11 -10 5z"/>
<path d="M650 1681 c0 -5 -7 -17 -16 -25 -8 -9 -11 -16 -6 -16 5 0 17 11 26
25 9 14 12 25 6 25 -5 0 -10 -4 -10 -9z"/>
<path d="M766 1677 c3 -10 9 -15 12 -12 3 3 0 11 -7 18 -10 9 -11 8 -5 -6z"/>
<path d="M875 1680 c-19 -8 -19 -9 3 -9 12 -1 22 4 22 9 0 6 -1 10 -2 9 -2 0
-12 -4 -23 -9z"/>
<path d="M250 1661 c0 -6 5 -11 11 -11 5 0 7 -4 4 -10 -3 -5 -1 -10 4 -10 16
0 13 16 -4 30 -10 9 -15 9 -15 1z"/>
<path d="M657 1644 c-10 -13 -22 -22 -28 -19 -5 4 -9 1 -9 -4 0 -17 14 -13 39
10 12 12 25 18 29 14 4 -4 -3 -15 -15 -25 -12 -9 -19 -21 -15 -25 4 -5 0 -6
-9 -2 -12 4 -16 0 -15 -16 1 -21 26 -38 26 -17 0 6 -4 8 -10 5 -19 -12 -10 5
21 36 18 18 28 37 25 46 -3 8 -6 17 -6 19 0 12 -17 1 -33 -22z"/>
<path d="M290 1649 c0 -5 5 -7 10 -4 6 3 10 8 10 11 0 2 -4 4 -10 4 -5 0 -10
-5 -10 -11z"/>
<path d="M450 1649 c0 -5 5 -7 10 -4 6 3 10 8 10 11 0 2 -4 4 -10 4 -5 0 -10
-5 -10 -11z"/>
<path d="M871 1651 c-7 -5 -12 -14 -10 -20 2 -6 10 -2 17 9 14 22 13 23 -7 11z"/>
<path d="M317 1643 c-9 -17 -1 -87 11 -91 6 -2 12 1 12 8 0 6 -4 8 -10 5 -5
-3 -10 -1 -10 4 0 6 6 11 13 11 8 0 7 4 -3 11 -11 8 -12 12 -2 16 6 2 12 9 12
14 0 6 -4 7 -10 4 -5 -3 -10 -2 -10 4 0 5 6 12 13 14 9 4 9 6 0 6 -6 1 -14 -2
-16 -6z"/>
<path d="M473 1627 c3 -9 -3 -27 -14 -41 -15 -19 -18 -30 -11 -43 7 -12 6 -20
-5 -29 -13 -9 -13 -13 -3 -19 8 -5 11 -4 7 2 -4 6 0 14 8 17 8 3 14 11 13 18
-2 7 2 12 9 13 6 0 15 4 20 9 4 5 3 6 -3 3 -13 -7 -29 22 -18 32 4 3 9 0 11
-6 3 -7 9 -13 15 -13 6 0 4 7 -3 17 -12 15 -12 16 3 10 10 -3 20 -1 24 5 4 7
3 8 -4 4 -6 -4 -21 3 -33 15 -15 15 -20 17 -16 6z m-3 -67 c0 -5 -4 -10 -10
-10 -5 0 -10 5 -10 10 0 6 5 10 10 10 6 0 10 -4 10 -10z"/>
<path d="M285 1620 c-4 -6 -11 -7 -17 -4 -7 4 -8 2 -4 -4 7 -12 36 -5 36 9 0
12 -7 11 -15 -1z"/>
<path d="M440 1620 c-13 -8 -12 -10 3 -10 9 0 17 5 17 10 0 12 -1 12 -20 0z"/>
<path d="M693 1600 c-13 -15 -23 -32 -23 -37 0 -4 12 7 26 25 25 31 27 32 41
15 13 -17 13 -16 3 5 -14 28 -20 27 -47 -8z"/>
<path d="M593 1602 c-9 -6 -7 -11 7 -20 12 -7 20 -8 20 -2 0 5 -5 10 -11 10
-5 0 -7 5 -4 10 7 12 4 12 -12 2z"/>
<path d="M870 1598 c0 -5 5 -6 12 -2 7 5 9 2 5 -9 -4 -11 -2 -14 8 -10 8 3 13
9 10 13 -3 5 3 10 12 13 10 2 3 4 -14 4 -18 0 -33 -4 -33 -9z"/>
<path d="M254 1585 c3 -20 26 -44 26 -27 0 7 -5 12 -11 12 -5 0 -8 4 -4 9 3 5
1 12 -4 15 -5 4 -8 -1 -7 -9z"/>
<path d="M930 1590 c-8 -5 -10 -10 -3 -10 7 0 9 -9 6 -22 -3 -13 -3 -21 0 -18
5 5 18 60 14 60 -1 0 -9 -5 -17 -10z"/>
<path d="M285 1580 c3 -5 8 -10 11 -10 2 0 4 5 4 10 0 6 -5 10 -11 10 -5 0 -7
-4 -4 -10z"/>
<path d="M698 1566 c-7 -14 -17 -24 -23 -23 -5 1 -11 -7 -12 -18 -1 -16 -1
-16 3 -2 3 9 10 15 15 12 5 -4 14 5 20 19 7 14 16 23 20 20 5 -3 2 -17 -7 -32
l-16 -27 20 24 c19 24 20 51 1 51 -4 0 -14 -11 -21 -24z"/>
<path d="M856 1577 c3 -10 9 -15 12 -12 3 3 0 11 -7 18 -10 9 -11 8 -5 -6z"/>
<path d="M573 1574 c4 -4 -1 -12 -10 -19 -13 -10 -14 -13 -2 -20 8 -5 10 -4 6
0 -4 5 2 14 14 20 20 11 20 12 3 19 -10 4 -15 4 -11 0z"/>
<path d="M890 1560 c-12 -7 -10 -9 8 -7 12 0 22 5 22 9 0 11 -12 10 -30 -2z"/>
<path d="M290 1550 c0 -5 5 -10 11 -10 5 0 7 5 4 10 -3 6 -8 10 -11 10 -2 0
-4 -4 -4 -10z"/>
<path d="M610 1550 c0 -5 5 -10 11 -10 5 0 7 5 4 10 -3 6 -8 10 -11 10 -2 0
-4 -4 -4 -10z"/>
<path d="M780 1553 c0 -6 5 -15 10 -18 6 -3 10 -11 10 -17 0 -6 -7 -5 -17 3
-16 12 -17 12 -6 -2 7 -8 10 -24 7 -36 -3 -11 -1 -24 5 -27 6 -4 11 -13 11
-19 -1 -7 -12 2 -26 18 -14 17 -24 25 -22 18 2 -6 -6 -19 -17 -28 -19 -16 -19
-16 3 -5 26 13 47 2 57 -31 4 -10 11 -19 17 -19 6 0 8 3 5 6 -4 4 3 15 15 25
11 11 17 19 13 19 -5 0 -17 -7 -27 -17 -23 -21 -24 0 0 23 16 17 16 17 0 11
-10 -3 -20 -2 -24 4 -7 12 15 69 27 69 5 0 9 5 9 11 0 8 -4 8 -14 0 -11 -10
-17 -8 -25 6 -6 10 -11 13 -11 6z"/>
<path d="M250 1540 c0 -5 6 -10 13 -10 8 0 7 -4 -3 -11 -13 -9 -12 -10 3 -5 9
3 17 3 17 -1 0 -3 -8 -12 -17 -20 -16 -13 -16 -13 5 -3 27 13 28 31 2 48 -12
7 -20 8 -20 2z"/>
<path d="M583 1535 c-3 -9 -3 -18 -1 -21 3 -3 8 4 11 16 6 23 -1 27 -10 5z"/>
<path d="M860 1543 c0 -7 5 -15 11 -19 8 -4 7 -9 -2 -15 -7 -4 -11 -10 -8 -13
2 -3 11 -1 18 3 11 7 11 13 -3 32 -9 13 -16 18 -16 12z"/>
<path d="M633 1533 c-7 -2 -13 -9 -13 -14 0 -6 5 -7 10 -4 25 15 7 -12 -20
-30 -16 -11 -30 -24 -30 -28 0 -5 4 -6 9 -2 5 3 11 0 14 -7 2 -7 3 -5 1 5 -1
10 8 25 21 33 13 8 23 24 22 35 -1 10 -1 19 -2 18 0 0 -6 -3 -12 -6z"/>
<path d="M895 1530 c3 -5 8 -10 11 -10 2 0 4 5 4 10 0 6 -5 10 -11 10 -5 0 -7
-4 -4 -10z"/>
<path d="M308 1523 c6 -2 18 -2 25 0 6 3 1 5 -13 5 -14 0 -19 -2 -12 -5z"/>
<path d="M535 1513 c-5 -10 -9 -21 -9 -25 -1 -3 -4 -10 -8 -14 -5 -4 -8 -12
-8 -18 0 -6 6 -4 13 4 7 9 19 15 27 15 24 -1 60 26 59 44 -1 13 -2 14 -5 1 -3
-9 -14 -21 -25 -28 -19 -12 -20 -11 -14 10 l6 23 -14 -23 c-7 -12 -16 -20 -20
-16 -4 4 -2 13 5 21 6 7 9 16 6 19 -3 3 -9 -3 -13 -13z"/>
<path d="M830 1520 c-13 -8 -12 -10 3 -10 9 0 17 5 17 10 0 12 -1 12 -20 0z"/>
<path d="M920 1523 c0 -6 6 -16 14 -22 18 -15 34 5 17 22 -9 9 -11 7 -6 -8 7
-20 6 -20 -9 -1 -9 11 -16 15 -16 9z"/>
<path d="M680 1514 c0 -5 -14 -18 -30 -29 -16 -11 -30 -24 -30 -29 0 -5 7 -3
15 4 10 9 15 9 15 1 0 -6 5 -11 12 -11 9 0 9 3 0 12 -10 10 -8 16 10 30 13 9
19 20 15 24 -4 4 -7 3 -7 -2z"/>
<path d="M283 1483 c-12 -13 -18 -23 -13 -23 6 0 10 -4 10 -10 0 -5 -8 -7 -17
-4 -15 5 -16 4 -3 -5 10 -7 11 -11 3 -11 -7 0 -13 -5 -13 -10 0 -6 8 -5 20 2
11 7 19 20 18 28 -4 22 11 40 33 40 10 0 19 4 19 8 0 16 -36 6 -57 -15z"/>
<path d="M755 1500 c-3 -5 -1 -10 4 -10 6 0 11 5 11 10 0 6 -2 10 -4 10 -3 0
-8 -4 -11 -10z"/>
<path d="M903 1495 c5 -15 -4 -31 -33 -59 -34 -34 -37 -41 -28 -62 17 -37 47
-41 74 -9 27 31 23 49 -9 39 -21 -6 -21 -5 -5 12 14 14 20 15 32 4 9 -7 16 -9
16 -5 0 4 -10 15 -22 25 -13 10 -20 22 -15 26 4 4 14 -1 23 -12 14 -18 14 -17
3 6 -7 13 -19 31 -27 39 -13 13 -14 13 -9 -4z m7 -51 c0 -3 -7 -12 -15 -21
-20 -19 -9 -36 18 -27 21 6 21 5 5 -12 -17 -17 -18 -17 -38 1 -11 10 -20 15
-20 12 0 -3 10 -15 22 -27 18 -16 19 -20 5 -20 -9 0 -23 10 -31 21 -14 20 -13
24 12 50 25 27 42 36 42 23z"/>
<path d="M807 1486 c-4 -9 2 -13 16 -12 11 1 22 7 23 14 1 7 0 8 -3 2 -2 -5
-9 -10 -14 -10 -6 0 -7 5 -4 10 3 6 2 10 -3 10 -6 0 -12 -6 -15 -14z"/>
<path d="M1299 1483 c-13 -16 -12 -17 4 -4 9 7 17 15 17 17 0 8 -8 3 -21 -13z"/>
<path d="M877 1483 c-4 -3 -7 -11 -7 -17 0 -6 5 -5 12 2 6 6 9 14 7 17 -3 3
-9 2 -12 -2z"/>
<path d="M300 1462 c0 -4 9 -8 20 -8 11 0 20 4 20 8 0 4 -9 8 -20 8 -11 0 -20
-4 -20 -8z"/>
<path d="M845 1460 c-3 -5 -1 -10 4 -10 6 0 11 5 11 10 0 6 -2 10 -4 10 -3 0
-8 -4 -11 -10z"/>
<path d="M490 1452 c0 -18 28 -26 45 -12 8 6 19 9 25 5 5 -3 10 -1 10 4 0 15
-16 14 -40 -1 -17 -11 -22 -10 -30 2 -7 10 -10 11 -10 2z"/>
<path d="M466 1442 c-2 -4 -1 -14 5 -22 5 -8 9 -10 10 -5 0 6 4 1 9 -10 8 -18
9 -18 9 -2 1 10 -6 20 -14 23 -8 4 -12 10 -9 15 3 5 3 9 0 9 -3 0 -7 -4 -10
-8z"/>
<path d="M308 1433 c6 -2 18 -2 25 0 6 3 1 5 -13 5 -14 0 -19 -2 -12 -5z"/>
<path d="M575 1430 c-3 -5 -1 -10 4 -10 6 0 11 5 11 10 0 6 -2 10 -4 10 -3 0
-8 -4 -11 -10z"/>
<path d="M612 1420 c-13 -10 -30 -16 -37 -13 -8 3 -15 1 -15 -4 0 -13 32 -13
47 -1 7 5 17 7 22 3 6 -3 8 0 5 9 -3 8 2 16 13 19 12 3 13 5 3 6 -8 0 -25 -8
-38 -19z"/>
<path d="M445 1410 c10 -11 22 -20 27 -20 4 0 -1 9 -12 20 -11 11 -23 20 -27
20 -3 0 2 -9 12 -20z"/>
<path d="M540 1419 c0 -5 5 -7 10 -4 6 3 10 8 10 11 0 2 -4 4 -10 4 -5 0 -10
-5 -10 -11z"/>
<path d="M740 1420 c0 -5 6 -9 13 -7 7 1 11 -6 10 -18 -1 -11 0 -14 3 -7 3 6
10 9 16 6 5 -3 4 3 -4 15 -13 22 -38 29 -38 11z"/>
<path d="M290 1409 c0 -5 -4 -8 -9 -4 -5 3 -12 2 -15 -3 -2 -4 4 -8 14 -9 10
-1 21 5 24 13 3 8 1 14 -4 14 -6 0 -10 -5 -10 -11z"/>
<path d="M513 1400 c-1 -11 2 -20 5 -20 4 0 8 9 9 20 1 11 -2 20 -5 20 -4 0
-8 -9 -9 -20z"/>
<path d="M326 1395 c4 -8 8 -15 10 -15 2 0 4 7 4 15 0 8 -4 15 -10 15 -5 0 -7
-7 -4 -15z"/>
<path d="M413 1395 c0 -8 4 -15 9 -15 4 0 8 7 8 15 0 8 -4 15 -8 15 -5 0 -9
-7 -9 -15z"/>
<path d="M960 1401 c0 -4 -13 -25 -30 -46 -16 -21 -30 -34 -30 -29 0 4 -5 3
-11 -3 -13 -13 -59 22 -59 44 0 7 -5 13 -10 13 -13 0 0 -27 30 -57 22 -25 40
-30 40 -12 0 5 4 8 9 4 5 -3 19 8 31 25 12 17 26 28 31 25 5 -4 6 1 3 10 -4
10 -1 14 7 12 8 -2 11 -2 6 0 -4 3 -5 9 -1 14 3 5 0 9 -5 9 -6 0 -11 -4 -11
-9z"/>
<path d="M236 1383 c-6 -14 -5 -15 5 -6 7 7 10 15 7 18 -3 3 -9 -2 -12 -12z"/>
<path d="M540 1391 c0 -6 4 -13 10 -16 6 -3 7 1 4 9 -7 18 -14 21 -14 7z"/>
<path d="M303 1376 c-4 -7 -15 -16 -23 -19 -8 -4 0 -5 18 -2 25 3 32 0 28 -10
-3 -9 0 -12 9 -8 8 3 13 9 10 13 -3 5 4 11 15 15 23 7 27 22 5 22 -8 0 -12 -4
-9 -9 3 -4 2 -8 -3 -9 -4 0 -16 -2 -26 -4 -13 -2 -17 1 -13 11 7 18 0 18 -11
0z"/>
<path d="M446 1377 c3 -10 9 -15 12 -12 3 3 0 11 -7 18 -10 9 -11 8 -5 -6z"/>
<path d="M210 1369 c0 -9 11 -21 25 -27 15 -7 25 -8 25 -2 0 6 -7 10 -15 10
-7 0 -19 8 -24 18 -9 14 -10 15 -11 1z"/>
<path d="M256 1371 c-4 -5 3 -7 14 -4 23 6 26 13 6 13 -8 0 -17 -4 -20 -9z"/>
<path d="M470 1376 c0 -2 9 -6 20 -9 11 -3 18 -1 14 4 -5 9 -34 13 -34 5z"/>
<path d="M567 1365 c-4 -8 -1 -17 6 -21 7 -4 9 -4 5 1 -4 4 -3 14 3 22 7 8 8
13 1 13 -5 0 -12 -7 -15 -15z"/>
<path d="M191 1360 c-1 -9 4 -21 11 -28 9 -9 9 -12 1 -12 -7 0 -15 5 -18 10
-3 6 -11 10 -18 10 -6 0 0 -8 13 -17 14 -9 36 -28 51 -42 41 -42 68 -60 39
-26 -14 16 -34 37 -45 47 -11 9 -15 17 -9 18 5 0 15 -5 22 -12 9 -9 12 -9 12
-1 0 7 -9 15 -21 18 -11 4 -24 16 -29 28 -6 14 -9 16 -9 7z"/>
<path d="M376 1355 c-25 -19 -16 -19 20 0 16 8 22 15 14 15 -8 -1 -24 -7 -34
-15z"/>
<path d="M433 1345 c1 -16 9 -37 19 -46 10 -9 14 -20 10 -25 -4 -4 0 -3 9 4 9
6 19 8 24 4 4 -4 3 2 -2 13 -5 11 -8 30 -7 43 0 12 -3 22 -8 22 -5 0 -7 -10
-3 -22 6 -22 6 -22 -9 -4 -9 11 -16 16 -17 10 0 -5 -4 0 -9 11 -7 17 -8 15 -7
-10z m37 -30 c20 -24 6 -28 -15 -5 -10 11 -13 20 -8 20 6 0 16 -7 23 -15z"/>
<path d="M537 1350 c10 -11 19 -20 21 -20 1 0 -2 9 -8 20 -6 11 -15 20 -20 20
-6 0 -2 -9 7 -20z"/>
<path d="M398 1337 c-7 -8 -23 -12 -35 -11 -15 3 -26 -3 -33 -19 -10 -20 -10
-20 3 -4 15 18 32 24 22 7 -3 -5 -1 -10 4 -10 6 0 11 4 11 9 0 18 30 5 56 -25
17 -19 22 -22 16 -8 -6 11 -18 27 -27 34 -12 10 -13 15 -3 21 7 4 10 11 6 14
-3 3 -12 0 -20 -8z"/>
<path d="M500 1340 c0 -5 7 -7 15 -4 8 4 15 8 15 10 0 2 -7 4 -15 4 -8 0 -15
-4 -15 -10z"/>
<path d="M923 1314 c-17 -19 -28 -34 -25 -35 4 0 15 -2 25 -4 9 -2 15 1 11 6
-3 5 1 9 8 9 9 0 9 3 -2 10 -13 8 -8 14 10 12 3 0 7 8 7 19 1 10 1 18 0 18 -1
-1 -16 -17 -34 -35z"/>
<path d="M274 1328 c1 -7 12 -13 23 -14 14 -1 20 3 16 12 -3 8 -9 14 -15 14
-5 0 -6 -4 -3 -10 3 -5 2 -10 -4 -10 -5 0 -12 5 -14 10 -3 6 -4 5 -3 -2z"/>
<path d="M520 1319 c0 -5 5 -7 10 -4 6 3 10 8 10 11 0 2 -4 4 -10 4 -5 0 -10
-5 -10 -11z"/>
<path d="M173 1298 c13 -13 36 -34 52 -48 38 -32 12 3 -30 42 -36 33 -56 38
-22 6z"/>
<path d="M260 1300 c0 -5 5 -10 11 -10 5 0 7 5 4 10 -3 6 -8 10 -11 10 -2 0
-4 -4 -4 -10z"/>
<path d="M295 1291 c3 -5 -3 -12 -12 -14 -10 -3 -6 -4 8 -4 18 1 25 6 22 14
-3 7 -9 13 -15 13 -5 0 -7 -4 -3 -9z"/>
<path d="M379 1293 c-1 -5 -1 -11 0 -15 0 -5 -5 -8 -12 -8 -7 0 -18 -10 -26
-22 l-13 -21 26 21 c15 11 26 24 26 28 -1 4 4 11 12 15 10 7 10 9 1 9 -7 0
-14 -3 -14 -7z"/>
<path d="M330 1270 c-6 -10 -16 -18 -23 -16 -6 1 -9 1 -4 -1 4 -3 5 -9 1 -14
-11 -19 4 -8 29 21 15 17 23 30 17 30 -5 0 -14 -9 -20 -20z"/>
<path d="M406 1265 c4 -8 11 -15 16 -15 6 0 5 6 -2 15 -7 8 -14 15 -16 15 -2
0 -1 -7 2 -15z"/>
<path d="M184 1249 c1 -7 10 -13 19 -15 9 -1 15 2 11 7 -3 5 -9 7 -14 4 -4 -3
-11 0 -13 5 -3 6 -4 5 -3 -1z"/>
<path d="M374 1244 c-18 -14 -18 -15 4 -4 12 6 22 13 22 15 0 8 -5 6 -26 -11z"/>
<path d="M1280 1192 c-41 -2 -80 -8 -87 -14 -8 -6 -13 -34 -13 -73 0 -60 1
-63 28 -71 15 -4 65 -8 112 -9 47 -1 92 -3 101 -4 12 -1 16 -12 16 -46 0 -51
8 -48 -127 -46 -89 2 -94 3 -101 14 -4 5 -15 7 -24 3 -17 -6 -16 -8 3 -29 22
-23 79 -37 66 -15 -5 7 -3 8 7 2 23 -14 121 -15 113 -1 -5 8 -3 8 7 0 15 -15
53 -18 45 -4 -4 5 4 7 16 4 13 -3 20 -3 16 2 -4 4 -1 14 7 22 11 10 12 19 5
33 -6 11 -6 21 -1 24 11 7 2 47 -16 64 -7 7 -17 10 -23 7 -5 -3 -10 -1 -10 6
0 9 -3 9 -14 0 -10 -9 -16 -9 -21 -1 -5 8 -10 8 -20 0 -10 -8 -15 -8 -20 0 -5
8 -10 8 -20 0 -9 -8 -15 -8 -20 0 -4 7 -13 7 -27 -1 -11 -6 -18 -7 -15 -2 3 5
-8 8 -24 7 -30 -2 -30 -2 -27 44 l3 47 112 2 c80 1 112 -1 110 -9 -1 -7 6 -14
16 -16 20 -4 24 30 5 46 -16 13 -82 18 -178 14z"/>
<path d="M1608 1192 c-58 -2 -70 -6 -80 -25 -17 -30 -18 -47 -5 -47 8 0 7 -3
-2 -9 -10 -6 -11 -13 -2 -29 7 -14 8 -23 1 -27 -11 -7 -9 -33 3 -52 5 -7 4
-13 -1 -13 -10 0 -10 -21 2 -62 8 -28 42 -43 61 -28 7 6 15 7 19 3 4 -5 28 -9
52 -10 33 -2 43 1 37 10 -5 9 -3 9 8 1 22 -18 103 -12 107 8 3 14 -12 16 -118
16 -119 0 -154 9 -144 35 8 23 10 132 2 155 -6 17 -5 21 4 16 8 -5 9 -2 5 10
-6 16 1 17 71 16 165 -3 192 -1 186 14 -6 16 -90 23 -206 18z"/>
</g>
</svg>
